<?xml version="1.0" encoding="UTF-8"?>
<svg id="Layer_2" data-name="Layer 2" xmlns="http://www.w3.org/2000/svg" viewBox="0 0 46.62 46.62">
  <defs>
    <style>
      .cls-1 {
        fill: #fff;
      }
    </style>
  </defs>
  <g id="Layer_1-2" data-name="Layer 1">
    <g>
      <path d="m12.2,0h22.23C41.16,0,46.62,5.46,46.62,12.2v22.23c0,6.73-5.46,12.2-12.2,12.2H12.2C5.46,46.62,0,41.16,0,34.43V12.2C0,5.46,5.46,0,12.2,0Z" transform="translate(46.62 0) rotate(90)"/>
      <g>
        <path class="cls-1" d="m34.75,34.19l-8.95-13-1.01-1.47-6.4-9.3-.53-.77h-7.87l1.92,2.79,8.51,12.37,1.01,1.47,6.84,9.94.53.77h7.87l-1.92-2.79Zm-5.01,1.01l-7.11-10.32-1.01-1.47-8.25-11.98h3.55l6.67,9.69,1.01,1.47,8.68,12.62h-3.55Z"/>
        <polygon class="cls-1" points="21.62 23.4 22.63 24.87 21.43 26.27 12.23 36.98 9.96 36.98 20.42 24.8 21.62 23.4"/>
        <polygon class="cls-1" points="35.72 9.64 25.8 21.19 24.6 22.58 23.59 21.11 24.79 19.72 31.51 11.89 33.45 9.64 35.72 9.64"/>
      </g>
    </g>
  </g>
</svg>